<svg width="100%" height="100%" viewBox="0 0 200 200" version="1.1" xmlns="http://www.w3.org/2000/svg" xmlns:xlink="http://www.w3.org/1999/xlink" xml:space="preserve" xmlns:serif="http://www.serif.com/" style="fill-rule:evenodd;clip-rule:evenodd;stroke-linejoin:round;stroke-miterlimit:2;">
    <path d="M164.383,108.451C164.729,105.678 164.989,102.86 164.989,100C164.989,97.14 164.729,94.322 164.383,91.549L182.716,77.203C184.363,75.903 184.839,73.562 183.756,71.655L166.42,41.62C165.336,39.756 163.082,38.976 161.132,39.756L139.548,48.468C135.084,45.044 130.187,42.14 124.899,39.93L121.649,16.959C121.259,14.922 119.482,13.319 117.315,13.319L82.642,13.319C80.475,13.319 78.698,14.922 78.351,16.959L75.101,39.93C69.813,42.14 64.916,45 60.452,48.468L38.868,39.756C36.918,39.02 34.664,39.756 33.581,41.62L16.244,71.655C15.161,73.519 15.638,75.859 17.284,77.203L35.574,91.549C35.228,94.322 34.967,97.14 34.967,100C34.967,102.86 35.228,105.678 35.574,108.451L17.284,122.797C15.638,124.097 15.161,126.438 16.244,128.345L33.581,158.38C34.664,160.244 36.918,161.024 38.868,160.244L60.452,151.532C64.916,154.956 69.814,157.86 75.101,160.07L78.352,183.041C78.698,185.078 80.475,186.681 82.642,186.681L117.315,186.681C119.482,186.681 121.259,185.078 121.606,183.041L124.856,160.07C130.144,157.86 135.041,155 139.505,151.532L161.089,160.244C163.039,160.98 165.293,160.244 166.376,158.38L183.713,128.345C184.796,126.481 184.319,124.141 182.673,122.797L164.383,108.451ZM99.978,130.338C83.205,130.338 69.64,116.773 69.64,100C69.64,83.227 83.205,69.662 99.978,69.662C116.751,69.662 130.317,83.227 130.317,100C130.317,116.773 116.751,130.338 99.978,130.338Z" style="fill:white;fill-rule:nonzero;"/>
</svg>
